HIERARCHY
ROOT mixamorig:Hips
{
	OFFSET 0.000000 201.639420 0.000000
	CHANNELS 6 Xposition Yposition Zposition Xrotation Yrotation Zrotation
	JOINT mixamorig:Spine
	{
		OFFSET 0.006200 19.524994 -2.481800
		CHANNELS 3 Xrotation Yrotation Zrotation
		JOINT mixamorig:Spine1
		{
			OFFSET -0.000900 22.835007 -2.825400
			CHANNELS 3 Xrotation Yrotation Zrotation
			JOINT mixamorig:Spine2
			{
				OFFSET -0.020600 26.552490 -3.193300
				CHANNELS 3 Xrotation Yrotation Zrotation
				JOINT mixamorig:Neck
				{
					OFFSET -0.060000 30.701813 1.352200
					CHANNELS 3 Xrotation Yrotation Zrotation
					JOINT mixamorig:Head
					{
						OFFSET -0.087200 22.547607 3.670900
						CHANNELS 3 Xrotation Yrotation Zrotation
						JOINT mixamorig:HeadTop_End
						{
							OFFSET -0.830600 40.355194 7.893500
							CHANNELS 3 Xrotation Yrotation Zrotation
							End Site
							{
								OFFSET 0.000000 30.592346 0.000000
							}
						}
						JOINT mixamorig:RightEye
						{
							OFFSET -6.302100 18.118591 16.197100
							CHANNELS 3 Xrotation Yrotation Zrotation
							End Site
							{
								OFFSET 0.000000 30.592346 0.000000
							}
						}
						JOINT mixamorig:LeftEye
						{
							OFFSET 6.741500 18.382690 16.401899
							CHANNELS 3 Xrotation Yrotation Zrotation
							End Site
							{
								OFFSET 0.000000 30.592346 0.000000
							}
						}
					}
				}
				JOINT mixamorig:LeftShoulder
				{
					OFFSET 11.924900 18.230499 1.425400
					CHANNELS 3 Xrotation Yrotation Zrotation
					JOINT mixamorig:LeftArm
					{
						OFFSET 25.435989 -0.697632 -5.229300
						CHANNELS 3 Xrotation Yrotation Zrotation
						JOINT mixamorig:LeftForeArm
						{
							OFFSET 54.684776 0.000000 0.000000
							CHANNELS 3 Xrotation Yrotation Zrotation
							JOINT mixamorig:LeftHand
							{
								OFFSET 55.098175 0.000000 0.000000
								CHANNELS 3 Xrotation Yrotation Zrotation
								JOINT mixamorig:LeftHandMiddle1
								{
									OFFSET 23.369751 0.000000 0.000000
									CHANNELS 3 Xrotation Yrotation Zrotation
									JOINT mixamorig:LeftHandMiddle2
									{
										OFFSET 6.378677 0.000000 0.000000
										CHANNELS 3 Xrotation Yrotation Zrotation
										JOINT mixamorig:LeftHandMiddle3
										{
											OFFSET 6.148331 0.000000 0.000000
											CHANNELS 3 Xrotation Yrotation Zrotation
											JOINT mixamorig:LeftHandMiddle4
											{
												OFFSET 6.582504 0.000000 0.000000
												CHANNELS 3 Xrotation Yrotation Zrotation
												End Site
												{
													OFFSET -1.168900 6.395691 1.028606
												}
											}
										}
									}
								}
								JOINT mixamorig:LeftHandThumb1
								{
									OFFSET 7.235672 -3.848206 5.434273
									CHANNELS 3 Xrotation Yrotation Zrotation
									JOINT mixamorig:LeftHandThumb2
									{
										OFFSET 6.568451 -3.792297 3.792300
										CHANNELS 3 Xrotation Yrotation Zrotation
										JOINT mixamorig:LeftHandThumb3
										{
											OFFSET 6.063080 -3.500519 3.500518
											CHANNELS 3 Xrotation Yrotation Zrotation
											JOINT mixamorig:LeftHandThumb4
											{
												OFFSET 4.793182 -2.767334 2.767349
												CHANNELS 3 Xrotation Yrotation Zrotation
												End Site
												{
													OFFSET 0.101639 6.054260 1.275483
												}
											}
										}
									}
								}
								JOINT mixamorig:LeftHandIndex1
								{
									OFFSET 23.101074 -0.309540 4.992809
									CHANNELS 3 Xrotation Yrotation Zrotation
									JOINT mixamorig:LeftHandIndex2
									{
										OFFSET 6.226883 0.000000 0.000000
										CHANNELS 3 Xrotation Yrotation Zrotation
										JOINT mixamorig:LeftHandIndex3
										{
											OFFSET 6.094330 0.000000 0.000000
											CHANNELS 3 Xrotation Yrotation Zrotation
											JOINT mixamorig:LeftHandIndex4
											{
												OFFSET 5.482605 0.000000 0.000000
												CHANNELS 3 Xrotation Yrotation Zrotation
												End Site
												{
													OFFSET -1.427902 5.233032 0.797164
												}
											}
										}
									}
								}
								JOINT mixamorig:LeftHandRing1
								{
									OFFSET 22.299240 0.021149 -3.964172
									CHANNELS 3 Xrotation Yrotation Zrotation
									JOINT mixamorig:LeftHandRing2
									{
										OFFSET 6.321869 0.000000 0.000000
										CHANNELS 3 Xrotation Yrotation Zrotation
										JOINT mixamorig:LeftHandRing3
										{
											OFFSET 5.899796 0.000000 0.000000
											CHANNELS 3 Xrotation Yrotation Zrotation
											JOINT mixamorig:LeftHandRing4
											{
												OFFSET 6.517899 0.000000 0.000000
												CHANNELS 3 Xrotation Yrotation Zrotation
												End Site
												{
													OFFSET -1.637299 6.232208 0.980890
												}
											}
										}
									}
								}
								JOINT mixamorig:LeftHandPinky1
								{
									OFFSET 20.463791 -0.302338 -8.562233
									CHANNELS 3 Xrotation Yrotation Zrotation
									JOINT mixamorig:LeftHandPinky2
									{
										OFFSET 6.908646 0.000000 0.000000
										CHANNELS 3 Xrotation Yrotation Zrotation
										JOINT mixamorig:LeftHandPinky3
										{
											OFFSET 4.622849 0.000000 0.000000
											CHANNELS 3 Xrotation Yrotation Zrotation
											JOINT mixamorig:LeftHandPinky4
											{
												OFFSET 5.216080 0.000000 0.000000
												CHANNELS 3 Xrotation Yrotation Zrotation
												End Site
												{
													OFFSET -0.606308 5.116241 0.814926
												}
											}
										}
									}
								}
							}
						}
					}
				}
				JOINT mixamorig:RightShoulder
				{
					OFFSET -12.001300 18.284088 1.348900
					CHANNELS 3 Xrotation Yrotation Zrotation
					JOINT mixamorig:RightArm
					{
						OFFSET -25.308500 -0.751312 -5.164599
						CHANNELS 3 Xrotation Yrotation Zrotation
						JOINT mixamorig:RightForeArm
						{
							OFFSET -54.684429 0.000000 0.000000
							CHANNELS 3 Xrotation Yrotation Zrotation
							JOINT mixamorig:RightHand
							{
								OFFSET -55.150291 0.000000 0.000000
								CHANNELS 3 Xrotation Yrotation Zrotation
								JOINT mixamorig:RightHandMiddle1
								{
									OFFSET -23.317566 0.000000 0.000000
									CHANNELS 3 Xrotation Yrotation Zrotation
									JOINT mixamorig:RightHandMiddle2
									{
										OFFSET -6.378403 0.000000 0.000000
										CHANNELS 3 Xrotation Yrotation Zrotation
										JOINT mixamorig:RightHandMiddle3
										{
											OFFSET -6.148193 0.000000 0.000000
											CHANNELS 3 Xrotation Yrotation Zrotation
											JOINT mixamorig:RightHandMiddle4
											{
												OFFSET -6.583389 0.000000 0.000000
												CHANNELS 3 Xrotation Yrotation Zrotation
												End Site
												{
													OFFSET 1.171692 6.395905 1.029786
												}
											}
										}
									}
								}
								JOINT mixamorig:RightHandThumb1
								{
									OFFSET -7.190521 -3.860474 5.435846
									CHANNELS 3 Xrotation Yrotation Zrotation
									JOINT mixamorig:RightHandThumb2
									{
										OFFSET -6.567429 -3.791718 3.791708
										CHANNELS 3 Xrotation Yrotation Zrotation
										JOINT mixamorig:RightHandThumb3
										{
											OFFSET -6.062469 -3.500153 3.500166
											CHANNELS 3 Xrotation Yrotation Zrotation
											JOINT mixamorig:RightHandThumb4
											{
												OFFSET -4.792618 -2.767029 2.767022
												CHANNELS 3 Xrotation Yrotation Zrotation
												End Site
												{
													OFFSET -0.100327 6.053253 1.276754
												}
											}
										}
									}
								}
								JOINT mixamorig:RightHandIndex1
								{
									OFFSET -23.048981 -0.310791 4.992554
									CHANNELS 3 Xrotation Yrotation Zrotation
									JOINT mixamorig:RightHandIndex2
									{
										OFFSET -6.227539 0.000000 0.000000
										CHANNELS 3 Xrotation Yrotation Zrotation
										JOINT mixamorig:RightHandIndex3
										{
											OFFSET -6.095047 0.000000 0.000000
											CHANNELS 3 Xrotation Yrotation Zrotation
											JOINT mixamorig:RightHandIndex4
											{
												OFFSET -5.484772 0.000000 0.000000
												CHANNELS 3 Xrotation Yrotation Zrotation
												End Site
												{
													OFFSET 1.420593 5.237305 0.797056
												}
											}
										}
									}
								}
								JOINT mixamorig:RightHandRing1
								{
									OFFSET -22.246323 0.020569 -3.963762
									CHANNELS 3 Xrotation Yrotation Zrotation
									JOINT mixamorig:RightHandRing2
									{
										OFFSET -6.322128 0.000000 0.000000
										CHANNELS 3 Xrotation Yrotation Zrotation
										JOINT mixamorig:RightHandRing3
										{
											OFFSET -5.900024 0.000000 0.000000
											CHANNELS 3 Xrotation Yrotation Zrotation
											JOINT mixamorig:RightHandRing4
											{
												OFFSET -6.518356 0.000000 0.000000
												CHANNELS 3 Xrotation Yrotation Zrotation
												End Site
												{
													OFFSET 1.636398 6.232697 0.982186
												}
											}
										}
									}
								}
								JOINT mixamorig:RightHandPinky1
								{
									OFFSET -20.411011 -0.303314 -8.561701
									CHANNELS 3 Xrotation Yrotation Zrotation
									JOINT mixamorig:RightHandPinky2
									{
										OFFSET -6.907349 0.000000 0.000000
										CHANNELS 3 Xrotation Yrotation Zrotation
										JOINT mixamorig:RightHandPinky3
										{
											OFFSET -4.623840 0.000000 0.000000
											CHANNELS 3 Xrotation Yrotation Zrotation
											JOINT mixamorig:RightHandPinky4
											{
												OFFSET -5.218353 0.000000 0.000000
												CHANNELS 3 Xrotation Yrotation Zrotation
												End Site
												{
													OFFSET 0.602097 5.118835 0.816273
												}
											}
										}
									}
								}
							}
						}
					}
				}
			}
		}
	}
	JOINT mixamorig:LeftUpLeg
	{
		OFFSET 18.168400 -13.561905 -0.039000
		CHANNELS 3 Xrotation Yrotation Zrotation
		JOINT mixamorig:LeftLeg
		{
			OFFSET 0.577358 -80.825211 -3.695000
			CHANNELS 3 Xrotation Yrotation Zrotation
			JOINT mixamorig:LeftFoot
			{
				OFFSET -0.577356 -83.370262 -6.520700
				CHANNELS 3 Xrotation Yrotation Zrotation
				JOINT mixamorig:LeftToeBase
				{
					OFFSET 0.750401 -20.798306 25.135401
					CHANNELS 3 Xrotation Yrotation Zrotation
					JOINT mixamorig:LeftToe_End
					{
						OFFSET -0.000500 0.001200 19.917799
						CHANNELS 3 Xrotation Yrotation Zrotation
						End Site
						{
							OFFSET 0.000000 19.917805 0.000000
						}
					}
				}
			}
		}
	}
	JOINT mixamorig:RightUpLeg
	{
		OFFSET -18.162500 -13.585098 -0.041000
		CHANNELS 3 Xrotation Yrotation Zrotation
		JOINT mixamorig:RightLeg
		{
			OFFSET -0.595024 -80.945297 -3.631900
			CHANNELS 3 Xrotation Yrotation Zrotation
			JOINT mixamorig:RightFoot
			{
				OFFSET 0.595024 -83.218193 -6.561200
				CHANNELS 3 Xrotation Yrotation Zrotation
				JOINT mixamorig:RightToeBase
				{
					OFFSET -0.753601 -20.807106 25.115000
					CHANNELS 3 Xrotation Yrotation Zrotation
					JOINT mixamorig:RightToe_End
					{
						OFFSET 0.000299 0.001700 19.918200
						CHANNELS 3 Xrotation Yrotation Zrotation
						End Site
						{
							OFFSET 0.000000 19.918203 0.000000
						}
					}
				}
			}
		}
	}
}
MOTION
Frames: 4
Frame Time: 0.033333
1.053014 117.921738 -8.006783 -33.113679 4.937418 3.681912 8.215638 1.951032 -1.036565 16.421552 4.328750 -1.183162 16.421554 4.328752 -1.183161 17.695792 -2.458093 0.569060 14.386381 -16.280181 15.474357 0.000001 -0.000000 -0.000000 0.000001 -0.000000 -0.000000 0.000001 -0.000000 -0.000000 0.984716 -1.345688 -16.923324 12.204967 -28.133355 -39.434879 -0.109493 -45.465694 0.127719 14.636219 5.588634 -7.555943 8.705131 4.844185 -39.740674 -0.797417 -2.105103 -33.773165 0.000001 -0.000015 -0.000003 -0.000000 0.000000 -0.000002 -4.321732 3.009361 22.768036 3.041930 -4.465112 15.093864 -0.000001 -0.000005 -0.000008 0.000004 -0.000002 -0.000000 4.506639 9.589955 -30.211802 0.296771 1.134538 -47.340922 -0.000003 -0.000006 -0.000002 0.000001 -0.000001 -0.000003 -1.596471 16.126051 -44.841035 -1.071153 -3.579014 -38.778204 0.000001 -0.000004 0.000000 -0.000000 -0.000000 0.000002 -2.505822 10.242364 -48.577955 -2.064957 -7.683441 -46.109852 -0.000002 -0.000003 0.000001 -0.000001 -0.000000 0.000001 -0.382958 23.688307 16.954770 -31.633222 43.896116 41.817594 73.851140 79.811204 -75.003817 61.251620 -7.648926 -16.253065 -0.769869 -2.130291 16.377829 -0.813743 1.754012 39.422298 0.000001 0.000002 -0.000001 0.000001 0.000001 -0.000000 -4.933599 -3.839421 -10.210313 2.321152 -6.714535 -2.170919 0.000005 0.000002 0.000003 0.000001 -0.000002 -0.000002 -3.537919 1.873438 23.721869 0.448641 -1.786166 38.219283 -0.000002 -0.000008 0.000002 -0.000002 -0.000003 -0.000000 -0.159830 -3.888175 17.278977 -0.609878 3.171387 25.740218 -0.000010 -0.000015 0.000007 -0.000002 -0.000000 0.000004 3.335814 -6.870356 19.343190 -0.265771 5.256887 13.654997 0.000004 0.000007 0.000001 0.000002 -0.000002 0.000001 -61.673500 -8.525294 3.630114 79.552245 -0.848130 -2.552800 25.414926 -2.013973 -10.429774 -14.774652 -0.121515 0.614586 0.000001 0.000000 -0.000000 -61.026504 6.950476 -25.191522 82.359883 -0.312604 2.619569 15.171426 -6.798282 -1.250752 3.833166 -0.197682 0.468642 -0.000000 0.000000 -0.000000 
2.448012 119.041290 -8.231438 -32.785734 5.131123 2.620474 8.235719 2.194248 -1.466884 16.465496 4.899336 -1.828186 16.465491 4.899332 -1.828186 18.242529 -2.918600 2.403824 11.125917 -19.694533 18.421662 -0.000001 0.000001 0.000000 -0.000001 0.000001 0.000000 -0.000001 0.000001 0.000000 0.983885 -0.746521 -16.002797 12.471548 -28.169498 -41.771702 -0.156320 -38.833058 0.113056 12.912476 5.282650 -10.413084 8.705137 4.844185 -39.740674 -0.797421 -2.105105 -33.773168 -0.000003 -0.000015 -0.000003 -0.000001 -0.000002 -0.000002 -4.561933 2.012660 23.061248 3.041927 -4.465108 15.093864 -0.000002 0.000001 -0.000011 0.000000 0.000004 -0.000003 4.506642 9.589956 -30.211802 0.296771 1.134539 -47.340922 -0.000000 -0.000007 0.000000 -0.000003 -0.000002 0.000001 -1.596467 16.126054 -44.841032 -1.071157 -3.579016 -38.778204 0.000001 -0.000005 0.000003 -0.000002 -0.000001 0.000001 -2.505813 10.242366 -48.577955 -2.064961 -7.683445 -46.109856 -0.000002 -0.000004 -0.000001 -0.000001 -0.000000 0.000001 -0.060797 25.284892 14.921737 -31.467317 49.602729 41.758551 87.948610 80.151157 -89.293693 60.760277 -6.835871 -15.598224 -0.769867 -2.130300 16.377825 -0.813744 1.754014 39.422295 0.000005 0.000002 -0.000001 -0.000002 0.000003 0.000001 -4.933594 -3.839421 -10.210315 2.321151 -6.714534 -2.170922 0.000004 0.000005 0.000004 0.000002 0.000001 -0.000003 -3.537917 1.873435 23.721870 0.448643 -1.786168 38.219287 -0.000005 -0.000001 0.000003 0.000002 -0.000002 0.000000 -0.159829 -3.888177 17.278972 -0.609889 3.171386 25.740215 -0.000005 -0.000018 0.000011 -0.000004 0.000001 -0.000001 3.335810 -6.870357 19.343186 -0.265773 5.256887 13.655000 0.000002 -0.000001 0.000003 -0.000003 0.000000 0.000001 -60.069444 -9.087385 2.953984 79.634166 -0.400469 -2.548119 17.533896 -1.927172 -7.558438 -11.123503 -0.080721 0.611068 0.000001 -0.000000 -0.000000 -61.347653 5.662371 -26.287006 80.873838 -0.344317 2.591896 12.601214 -13.423876 -3.199176 4.744290 -0.200050 0.473756 -0.000000 0.000001 -0.000000 
4.041640 119.509476 -7.994957 -33.264920 5.380625 2.186703 8.294777 2.353592 -1.710572 16.590687 5.222002 -2.265282 16.590697 5.222007 -2.265286 19.704220 -2.998031 3.097092 9.210378 -21.323647 20.263766 -0.000004 0.000002 -0.000000 -0.000004 0.000002 -0.000000 -0.000004 0.000002 -0.000000 0.972685 -0.375911 -14.965090 11.174727 -28.715017 -44.451216 -0.188478 -31.452140 0.077981 12.735099 5.985445 -13.955900 8.705138 4.844187 -39.740670 -0.797421 -2.105105 -33.773165 -0.000003 -0.000014 -0.000003 -0.000000 0.000000 -0.000002 -4.612761 2.118359 21.987282 3.041916 -4.465108 15.093871 0.000003 -0.000005 -0.000011 0.000001 -0.000001 -0.000001 4.506639 9.589957 -30.211798 0.296776 1.134538 -47.340926 -0.000002 -0.000003 -0.000007 -0.000001 0.000003 -0.000001 -1.596470 16.126053 -44.841032 -1.071162 -3.579017 -38.778211 0.000001 -0.000002 -0.000000 0.000000 0.000002 0.000003 -2.505816 10.242366 -48.577955 -2.064957 -7.683443 -46.109859 -0.000002 -0.000006 -0.000001 -0.000001 0.000001 0.000000 0.110504 26.343170 13.958447 -30.470058 54.756179 41.716282 94.511541 80.109588 -95.937834 59.303357 -6.306739 -14.733476 -0.769875 -2.130297 16.377825 -0.813741 1.754014 39.422291 0.000003 0.000002 -0.000001 -0.000002 -0.000000 0.000002 -4.933598 -3.839420 -10.210317 2.321147 -6.714540 -2.170922 0.000008 0.000004 0.000002 0.000000 0.000003 0.000003 -3.537918 1.873439 23.721872 0.448646 -1.786169 38.219287 -0.000005 0.000003 -0.000004 0.000001 -0.000000 -0.000002 -0.159832 -3.888176 17.278968 -0.609880 3.171383 25.740217 -0.000003 -0.000015 0.000008 0.000001 0.000000 0.000001 3.335800 -6.870357 19.343186 -0.265774 5.256887 13.654995 0.000004 -0.000001 0.000001 -0.000003 0.000002 0.000000 -59.950633 -9.380098 2.741463 79.660196 -0.530199 -2.547948 19.177368 -2.451146 -8.448908 -11.542390 -0.085388 0.611600 -0.000001 -0.000000 -0.000000 -61.095496 6.113751 -27.314370 80.221917 -0.387836 2.574861 10.556778 -15.528727 -4.653428 4.967733 -0.200653 0.475006 -0.000000 -0.000004 -0.000001 
5.428469 119.779861 -7.773956 -34.140181 5.784699 1.934952 8.348609 2.421584 -1.813448 16.706957 5.307925 -2.533028 16.706960 5.307930 -2.533030 21.328198 -2.825125 2.918864 8.448188 -21.180876 20.420001 -0.000002 -0.000000 -0.000000 -0.000002 -0.000000 -0.000000 -0.000002 -0.000000 -0.000000 0.966274 -0.243226 -14.386257 10.368593 -29.082283 -45.522029 -0.192469 -27.788604 0.064233 14.525014 7.119204 -17.301346 8.705133 4.844185 -39.740674 -0.797419 -2.105104 -33.773172 -0.000001 -0.000015 0.000000 0.000001 0.000003 0.000002 -4.783101 1.562113 21.770586 3.041924 -4.465109 15.093868 -0.000001 -0.000008 -0.000006 0.000004 -0.000001 0.000001 4.506645 9.589954 -30.211798 0.296770 1.134538 -47.340922 0.000001 -0.000004 -0.000001 -0.000003 0.000001 0.000001 -1.596467 16.126049 -44.841032 -1.071160 -3.579013 -38.778201 0.000004 -0.000001 -0.000000 0.000001 -0.000001 -0.000002 -2.505820 10.242365 -48.577951 -2.064958 -7.683445 -46.109859 -0.000003 -0.000007 -0.000002 0.000000 -0.000002 0.000001 -0.019840 27.352206 14.496356 -27.367129 57.986879 40.409435 96.534786 80.084993 -97.985443 57.781126 -5.117909 -13.832615 -0.769872 -2.130298 16.377829 -0.813745 1.754014 39.422301 -0.000001 0.000002 -0.000001 -0.000004 0.000002 0.000000 -4.933595 -3.839423 -10.210316 2.321149 -6.714534 -2.170919 0.000008 0.000004 0.000004 -0.000002 0.000000 0.000002 -3.537918 1.873435 23.721870 0.448647 -1.786167 38.219287 -0.000007 0.000001 0.000001 -0.000002 0.000001 -0.000001 -0.159828 -3.888178 17.278970 -0.609880 3.171383 25.740222 -0.000006 -0.000016 0.000009 0.000000 0.000000 0.000000 3.335809 -6.870358 19.343193 -0.265773 5.256887 13.654997 -0.000001 0.000002 0.000001 0.000003 0.000000 -0.000000 -59.879681 -9.237963 2.684826 79.266709 -0.781902 -2.542767 23.624238 -3.135822 -8.507841 -13.922874 -0.111981 0.613991 0.000000 0.000000 0.000000 -60.448130 7.242465 -27.949855 79.894751 -0.393660 2.562403 9.424080 -13.837296 -4.925547 4.326699 -0.198934 0.471434 -0.000001 -0.000001 0.000000 
